<?xml version="1.0" standalone="no"?>
<!DOCTYPE svg PUBLIC "-//W3C//DTD SVG 20010904//EN"
 "http://www.w3.org/TR/2001/REC-SVG-20010904/DTD/svg10.dtd">
<svg version="1.0" xmlns="http://www.w3.org/2000/svg"
 width="499.000000pt" height="500.000000pt" viewBox="0 0 499.000000 500.000000"
 preserveAspectRatio="xMidYMid meet">

<g transform="translate(0.000000,500.000000) scale(0.100000,-0.100000)"
fill="#000000" stroke="none">
<path d="M2470 4480 c0 -25 4 -39 10 -35 6 3 10 19 10 35 0 16 -4 32 -10 35
-6 4 -10 -10 -10 -35z"/>
<path d="M2245 4410 c9 -16 20 -30 26 -30 5 0 2 14 -8 30 -9 17 -21 30 -25 30
-5 0 -2 -13 7 -30z"/>
<path d="M2704 4426 c-6 -7 -17 -23 -23 -37 -11 -22 -10 -22 13 4 14 15 26 32
26 38 0 12 -3 11 -16 -5z"/>
<path d="M2446 4335 c-11 -8 -26 -15 -34 -15 -27 0 -75 -44 -94 -87 -10 -23
-25 -43 -33 -43 -26 0 -45 -42 -45 -100 0 -54 -2 -57 -32 -71 -20 -9 -35 -25
-41 -44 -13 -39 -8 -35 -69 -50 -110 -28 -307 -114 -398 -175 -30 -20 -73 -49
-95 -63 -67 -46 -197 -168 -270 -255 -76 -90 -171 -224 -181 -254 -3 -10 -10
-15 -16 -12 -6 4 -8 2 -5 -4 4 -5 -7 -41 -24 -79 -92 -203 -148 -433 -149
-609 0 -100 18 -269 36 -334 68 -242 131 -390 232 -540 27 -41 101 -126 163
-189 188 -187 420 -327 664 -399 308 -92 682 -76 975 39 117 47 420 214 420
233 0 2 -21 -1 -47 -6 -95 -18 -178 14 -247 95 -57 67 -126 101 -206 101 -42
1 -77 -5 -97 -16 -41 -20 -53 -5 -16 19 21 14 47 18 108 18 98 -1 125 -13 217
-101 36 -36 82 -71 102 -79 47 -20 131 -18 184 4 110 44 292 256 388 451 60
122 79 172 114 303 81 306 65 577 -53 902 -48 135 -137 298 -213 390 -24 30
-44 57 -44 61 0 3 -12 18 -27 33 -16 15 -47 49 -71 74 -52 57 -211 183 -272
216 -25 14 -48 29 -52 35 -4 6 -8 8 -8 3 0 -4 -18 4 -40 18 -22 14 -42 25 -45
25 -3 0 -24 9 -48 19 -82 37 -173 69 -228 80 -50 11 -56 15 -65 44 -6 22 -19
36 -41 46 -30 13 -32 17 -27 51 7 45 -18 110 -45 117 -12 3 -25 20 -31 39 -14
40 -68 90 -109 99 -17 4 -31 11 -31 16 0 14 -33 10 -54 -6z m111 -63 c24 -13
43 -42 43 -64 0 -7 -12 2 -26 20 -28 36 -67 43 -83 15 -9 -17 -11 -16 -30 1
-28 26 -63 10 -90 -41 l-20 -38 -1 31 c0 30 36 76 70 86 27 9 114 2 137 -10z
m-206 -157 c60 -45 69 -69 38 -101 l-24 -23 -42 27 c-31 20 -45 36 -49 58 -5
29 8 74 23 74 3 0 27 -16 54 -35z m317 -5 c5 -52 -5 -75 -41 -95 -33 -18 -35
-18 -60 1 -15 10 -27 23 -27 28 0 15 102 107 114 103 6 -2 12 -18 14 -37z
m-178 -14 c0 -21 -11 -46 -20 -46 -12 0 -20 28 -14 45 8 19 34 20 34 1z m36
-123 c14 -16 30 -36 35 -45 8 -15 4 -15 -36 3 -52 23 -101 15 -140 -21 l-22
-21 -59 20 c-80 28 -121 81 -63 81 42 0 86 -27 98 -60 11 -32 11 -33 31 -15
11 10 20 24 20 31 0 21 50 54 82 54 19 0 38 -10 54 -27z m200 2 c12 -29 -18
-47 -136 -82 -12 -4 -12 -3 -2 5 8 5 19 20 26 33 11 23 68 59 94 59 7 0 15 -7
18 -15z m-205 -95 c27 -22 22 -25 -15 -9 -35 16 -71 4 -96 -33 l-22 -33 7 30
c13 60 80 84 126 45z m-195 -32 c6 -7 14 -30 17 -52 l6 -39 -47 6 c-69 8 -118
70 -74 97 21 13 81 5 98 -12z m403 5 c22 -39 -38 -93 -104 -93 -19 0 -22 5
-21 45 1 38 5 46 26 54 42 16 88 13 99 -6z m-737 -73 c-47 -42 -56 -91 -48
-267 4 -95 3 -153 -3 -153 -12 0 -24 124 -25 245 0 78 4 97 27 142 15 28 37
59 49 67 36 25 35 -1 0 -34z m178 34 c0 -24 38 -72 70 -89 16 -8 47 -15 69
-15 22 0 43 -4 46 -10 3 -5 18 -10 33 -10 21 0 24 -2 12 -10 -11 -7 4 -10 50
-10 40 1 72 6 83 15 11 7 25 11 33 8 8 -3 27 -1 42 5 15 6 44 13 65 17 43 7
107 64 107 95 0 24 5 24 61 5 51 -18 79 -41 79 -66 0 -41 -137 -89 -313 -110
-222 -26 -528 29 -567 101 -15 28 -6 38 54 66 60 28 76 30 76 8z m814 -25 c49
-58 60 -118 51 -291 -4 -76 -11 -138 -16 -138 -5 0 -6 64 -3 148 8 171 -1 215
-52 271 -18 21 -34 41 -34 45 0 16 22 2 54 -35z m181 -59 c3 -5 -1 -10 -9 -10
-9 0 -16 5 -16 10 0 6 4 10 9 10 6 0 13 -4 16 -10z m-1345 -4 c0 -11 -19 -15
-25 -6 -3 5 1 10 9 10 9 0 16 -2 16 -4z m13 -148 c73 -323 76 -362 42 -415
-19 -29 -71 -53 -114 -53 -16 0 -81 14 -144 30 -156 40 -215 40 -301 -3 -70
-35 -98 -34 -47 2 86 61 193 68 364 22 64 -17 126 -31 137 -31 34 0 78 31 91
63 17 41 14 70 -26 266 -39 193 -38 191 -27 191 5 0 16 -33 25 -72z m1322 53
c-3 -10 -12 -54 -20 -97 -7 -43 -23 -117 -34 -164 -30 -122 -28 -173 6 -205
42 -38 75 -39 206 -6 150 39 208 40 278 3 29 -15 55 -34 57 -41 3 -10 -12 -5
-42 13 -73 42 -122 44 -273 6 -152 -39 -189 -36 -240 15 -43 43 -43 71 3 295
43 208 41 200 54 200 7 0 9 -8 5 -19z m-1436 -42 c42 -53 57 -95 25 -68 -34
28 -88 119 -70 119 2 0 23 -23 45 -51z m1532 -24 c-38 -50 -61 -68 -61 -47 0
4 21 34 47 67 58 73 71 55 14 -20z m-1195 10 c16 -12 16 -14 3 -15 -9 0 -22 7
-29 15 -16 19 0 19 26 0z m869 -5 c-3 -5 -14 -10 -23 -10 -15 0 -15 2 -2 10
20 13 33 13 25 0z m-1237 -130 c25 -23 42 -43 39 -46 -3 -4 -23 10 -44 30 -21
20 -62 53 -90 73 -29 21 -53 44 -53 51 0 14 64 -33 148 -108z m1731 94 c-16
-19 -166 -133 -184 -141 -10 -3 -13 -1 -10 8 9 21 187 159 197 153 5 -3 4 -12
-3 -20z m-1195 -111 c66 -73 153 -82 222 -21 l35 31 27 -25 c54 -51 100 -60
164 -34 37 16 102 81 120 122 16 34 30 30 67 -16 17 -22 43 -43 56 -46 27 -7
35 -34 10 -34 -25 0 -73 29 -85 50 -15 29 -24 25 -54 -21 -29 -43 -100 -94
-148 -104 -44 -10 -93 2 -128 32 l-31 25 -37 -26 c-47 -32 -88 -41 -137 -27
-53 14 -97 47 -131 97 l-29 43 -26 -25 c-26 -25 -83 -47 -93 -36 -14 13 -4 32
17 32 14 0 39 16 62 41 l40 40 20 -27 c11 -15 37 -47 59 -71z m117 77 c16 0
29 -4 29 -10 0 -11 -49 -14 -74 -4 -9 3 -16 11 -16 16 0 6 7 7 16 4 9 -3 29
-6 45 -6z m309 -10 c-20 -13 -70 -13 -70 0 0 6 19 10 43 10 31 0 38 -3 27 -10z
m-458 -184 c3 -43 6 -51 23 -51 15 0 21 8 23 28 3 22 7 27 20 21 51 -21 108
-25 150 -11 36 13 44 13 49 2 2 -8 2 -19 -2 -25 -11 -18 5 -50 26 -50 16 0 19
7 19 46 0 40 2 45 18 39 9 -4 34 -12 55 -17 35 -10 79 -4 130 17 13 5 17 2 17
-13 0 -23 25 -46 40 -37 5 3 10 27 10 52 0 34 6 53 22 70 12 13 25 23 29 23 5
0 9 -26 11 -57 2 -46 7 -59 21 -61 14 -3 17 4 17 37 0 45 7 53 38 44 18 -4 22
-13 22 -42 0 -20 -7 -47 -16 -59 -15 -22 -15 -23 2 -20 13 2 20 -4 22 -19 2
-13 -1 -23 -7 -23 -6 0 -11 -10 -11 -22 0 -37 -13 -48 -86 -72 -110 -37 -199
-49 -374 -48 -192 1 -292 17 -380 60 l-55 27 -2 113 -2 112 34 0 c33 0 34 -1
37 -42 2 -35 7 -43 23 -43 17 0 20 7 21 50 1 28 2 54 3 59 1 5 12 -1 26 -14
18 -17 25 -35 27 -74z m-378 8 c11 -30 6 -37 -14 -19 -11 10 -20 22 -20 27 0
15 28 9 34 -8z m1356 3 c0 -14 -20 -37 -32 -37 -12 0 -10 24 4 38 16 16 28 15
28 -1z m-1563 -33 c102 -27 194 -64 177 -71 -6 -2 -65 12 -130 32 -130 40
-244 53 -314 37 -47 -11 -61 -9 -44 8 35 35 169 32 311 -6z m2021 15 c17 -6
32 -15 32 -21 0 -6 -8 -7 -17 -3 -10 4 -52 9 -93 12 -75 4 -120 -4 -320 -61
-30 -9 -59 -15 -65 -13 -30 10 174 79 285 97 60 9 126 5 178 -11z m-688 -203
c0 -20 -93 -53 -232 -82 -131 -27 -202 -31 -196 -11 3 7 40 16 94 23 89 11
271 56 302 74 24 13 32 12 32 -4z m-815 -30 c39 -13 106 -29 149 -35 87 -12
91 -14 81 -31 -9 -15 -69 -7 -192 25 -92 24 -143 48 -143 67 0 11 0 11 105
-26z m1391 23 c11 -19 -37 -47 -101 -58 -33 -6 -139 -22 -235 -36 -185 -26
-326 -51 -341 -61 -5 -3 -9 -130 -9 -287 0 -231 3 -287 15 -311 8 -15 15 -30
15 -31 0 -6 -131 -38 -135 -33 -3 3 -1 17 5 32 6 17 10 143 10 317 0 245 -2
289 -14 289 -8 0 -44 -7 -81 -15 -43 -10 -76 -13 -98 -7 -41 11 -42 36 -2 40
17 1 120 23 230 47 110 24 310 60 444 80 134 19 247 37 249 40 10 9 41 5 48
-6z m-1596 -3 c0 -3 -4 -8 -10 -11 -5 -3 -10 -1 -10 4 0 6 5 11 10 11 6 0 10
-2 10 -4z m1850 -5 c0 -14 -18 -23 -30 -16 -6 4 -8 11 -5 16 8 12 35 12 35 0z
m-2344 -32 c64 -30 101 -78 115 -148 l13 -60 38 34 c90 82 232 124 349 106 70
-12 128 -43 182 -99 l39 -40 85 44 c48 24 112 67 144 94 53 46 79 56 79 30 0
-17 -104 -111 -163 -147 -33 -20 -74 -37 -91 -37 l-31 -1 1 -101 c1 -56 6
-108 10 -116 5 -8 41 -59 79 -114 l70 -99 3 138 c1 84 -2 145 -8 157 -14 26
-6 39 36 56 61 26 83 12 47 -29 -16 -16 -18 -48 -21 -260 -3 -144 -8 -247 -14
-254 -16 -20 -45 -15 -65 11 -10 14 -65 97 -122 185 -58 89 -109 161 -114 161
-5 0 -6 -75 -2 -187 5 -142 11 -192 22 -205 17 -19 15 -21 -65 -43 -68 -19
-79 -17 -63 13 16 30 15 464 -1 480 -30 30 97 94 152 77 28 -9 36 18 21 74
-14 51 -36 79 -98 122 -60 42 -127 55 -214 42 -96 -15 -169 -54 -239 -130 -40
-42 -60 -57 -62 -47 -2 10 -19 -7 -46 -45 -93 -132 -228 -176 -332 -107 -71
47 -100 148 -66 229 24 59 111 117 176 117 34 0 89 -22 114 -45 43 -40 33
-125 -15 -125 -26 0 -35 21 -16 35 45 33 -1 75 -81 75 -47 0 -57 -4 -93 -38
-33 -31 -42 -46 -46 -82 -9 -88 58 -156 145 -147 88 9 223 132 237 216 25 147
-123 248 -259 176 -53 -28 -61 -18 -13 18 55 42 119 48 183 16z m214 -3 c0 -2
-7 -9 -15 -16 -12 -10 -15 -10 -15 4 0 9 7 16 15 16 8 0 15 -2 15 -4z m1990
-40 c0 -8 -4 -18 -10 -21 -14 -9 -13 -479 1 -547 13 -61 30 -84 66 -91 66 -12
133 37 133 98 0 47 -39 99 -76 103 -39 4 -60 -18 -45 -46 8 -15 7 -21 -3 -25
-34 -13 -49 52 -19 85 39 43 129 4 159 -69 53 -125 -63 -233 -207 -193 -68 19
-101 75 -115 195 -3 33 -8 63 -10 67 -7 11 -148 -31 -161 -49 -12 -16 -17 -60
-14 -110 2 -18 -6 -23 -46 -31 -26 -6 -50 -9 -52 -6 -3 3 2 17 11 32 8 15 18
47 22 72 4 25 9 55 12 67 5 17 -3 27 -35 47 -23 15 -41 33 -41 41 0 21 20 19
46 -6 30 -28 48 -20 74 32 27 51 91 122 148 161 42 29 43 30 40 81 -3 46 -5
52 -23 49 -57 -9 -100 -26 -122 -48 -24 -24 -24 -26 -7 -45 9 -10 15 -20 13
-22 -2 -1 -12 -9 -22 -16 -15 -12 -20 -11 -37 4 -25 23 -25 51 0 92 28 46 53
59 170 86 126 30 150 32 150 13z m100 -45 c5 -11 10 -37 10 -58 l-1 -38 -24
30 c-24 29 -32 64 -18 78 11 12 22 8 33 -12z m80 -20 c0 -27 -33 -81 -49 -81
-5 0 -2 21 6 48 8 26 17 53 19 60 7 22 24 3 24 -27z m-591 -38 c26 -23 34 -68
15 -84 -8 -6 -15 -10 -17 -8 -1 2 -9 17 -17 34 -18 34 -35 40 -74 25 l-27 -10
3 -229 c3 -201 5 -231 21 -248 19 -21 14 -33 -14 -33 -12 0 -21 -10 -24 -27
-19 -89 -28 -120 -47 -157 -28 -55 -111 -156 -198 -241 -64 -61 -70 -71 -55
-80 50 -29 132 -87 202 -141 60 -47 88 -62 122 -67 107 -14 264 47 344 132
l47 50 -34 45 c-137 180 79 463 280 366 49 -24 92 -81 105 -141 31 -137 -92
-309 -221 -309 -44 0 -37 31 9 44 49 14 117 82 130 131 22 81 8 155 -39 205
-28 31 -34 32 -85 28 -46 -4 -62 -10 -92 -39 -46 -44 -73 -103 -72 -159 1 -55
21 -115 39 -115 7 0 25 25 39 55 26 55 53 71 59 37 6 -29 -62 -157 -113 -214
-91 -103 -210 -159 -359 -170 -91 -6 -184 12 -245 49 -20 11 -73 57 -118 101
-77 76 -84 80 -108 69 -25 -11 -25 -13 -25 -121 0 -84 3 -111 15 -121 8 -7 15
-15 15 -19 0 -9 -140 -44 -148 -37 -3 4 0 12 6 18 8 8 12 52 12 126 0 97 -3
117 -17 128 -17 13 -17 15 0 28 15 11 17 32 17 156 l0 142 -32 -5 c-79 -11
-236 -48 -273 -64 -22 -9 -53 -27 -68 -40 -34 -28 -47 -29 -47 -5 0 31 61 79
130 101 78 26 381 93 388 86 3 -2 4 -74 3 -160 -1 -85 1 -155 4 -155 21 0 124
80 200 155 65 65 125 144 149 196 26 55 34 123 16 134 -6 4 -10 96 -10 244 0
131 -2 240 -6 243 -8 9 -76 -9 -84 -22 -4 -7 -5 -20 -3 -30 7 -26 -17 -37 -34
-15 -39 54 0 91 128 126 124 33 179 36 208 12z m-753 -34 c10 -17 -13 -36 -27
-22 -12 12 -4 33 11 33 5 0 12 -5 16 -11z m-608 -51 c8 -8 12 -62 12 -177 0
-154 1 -166 21 -187 l21 -23 -21 -13 c-20 -12 -21 -22 -21 -140 0 -119 1 -129
22 -148 19 -18 20 -22 8 -30 -23 -15 -77 -23 -105 -16 l-25 6 0 140 c0 77 -3
140 -7 140 -5 0 -46 -11 -93 -26 -47 -14 -102 -30 -123 -36 -21 -7 -42 -19
-46 -27 -5 -9 -19 -70 -31 -135 -19 -96 -30 -129 -57 -168 -28 -42 -31 -53
-21 -71 25 -49 53 -49 68 1 41 128 177 342 218 342 8 0 -2 -19 -26 -47 -56
-69 -115 -170 -152 -266 -18 -45 -38 -88 -43 -94 -16 -21 -39 -15 -73 18 l-32
31 -41 -27 c-64 -43 -98 -26 -115 56 -4 17 -16 31 -36 39 -38 16 -60 46 -60
82 0 59 38 98 94 98 27 0 75 -35 63 -46 -4 -4 -13 -2 -19 4 -21 21 -85 15
-102 -10 -21 -30 -20 -50 5 -82 25 -31 56 -34 61 -6 6 38 23 16 20 -26 -3 -49
12 -94 32 -94 8 0 27 15 43 34 26 28 32 48 47 147 23 146 64 277 132 412 67
135 115 210 168 266 67 71 180 113 214 79z m1963 -16 c-12 -22 -41 -48 -41
-36 0 8 40 54 47 54 2 0 -1 -8 -6 -18z m-110 -19 c-12 -20 -14 -14 -5 12 4 9
9 14 11 11 3 -2 0 -13 -6 -23z m-1725 -10 c-3 -8 -6 -17 -6 -19 0 -2 -6 -4
-14 -4 -18 0 -27 25 -14 38 14 14 40 3 34 -15z m639 17 c4 -6 2 -17 -5 -25 -8
-10 -10 -77 -8 -232 3 -188 5 -223 20 -245 21 -32 21 -31 -61 -53 -64 -16 -84
-14 -63 7 17 17 17 461 0 487 -15 25 2 47 46 60 43 13 64 13 71 1z m1295 -154
c0 -3 -13 -11 -30 -20 -31 -15 -39 -9 -18 12 11 11 48 17 48 8z m-2790 -157
c0 -5 -5 -9 -12 -9 -6 0 -20 -7 -30 -17 -16 -14 -18 -15 -18 0 0 9 10 23 22
31 21 15 38 13 38 -5z m129 -3 c8 -9 8 -21 1 -40 -11 -31 -25 -33 -40 -6 -22
41 11 80 39 46z m2188 -32 c8 -21 -19 -46 -40 -38 -17 6 -23 35 -10 47 12 13
44 7 50 -9z m-483 -30 c12 -31 6 -85 -14 -123 -34 -68 -161 -161 -219 -161
-35 0 -24 25 22 47 112 55 174 124 184 202 6 51 16 64 27 35z m-1684 -94 c-7
-17 -15 -28 -18 -26 -2 3 1 19 8 36 7 17 15 28 18 26 2 -3 -1 -19 -8 -36z
m1930 -24 c0 -15 -24 -28 -34 -19 -13 14 -5 33 14 33 11 0 20 -6 20 -14z m710
-6 c0 -5 -7 -10 -16 -10 -9 0 -23 -8 -30 -17 -11 -15 -13 -16 -14 -2 0 8 5 20
12 27 15 15 48 16 48 2z m-2847 -40 c-17 -10 -30 -13 -32 -7 -5 15 28 37 46
30 10 -4 7 -10 -14 -23z m2367 15 c0 -8 -4 -15 -9 -15 -13 0 -22 16 -14 24 11
11 23 6 23 -9z m-1230 -70 c0 -18 -5 -25 -19 -25 -24 0 -33 13 -25 34 10 27
44 20 44 -9z m1150 0 c17 -20 7 -93 -20 -145 -32 -62 -94 -117 -161 -141 -63
-23 -68 -32 -44 -79 27 -52 101 -36 163 34 32 37 46 43 56 27 22 -34 -83 -152
-155 -176 -46 -16 -51 -16 -86 2 -54 27 -74 61 -82 139 -4 37 -12 69 -18 71
-47 16 -54 60 -8 49 21 -5 27 1 48 48 32 68 100 143 152 167 50 23 138 25 155
4z m-1660 -79 c0 -7 -9 -16 -20 -19 -15 -4 -20 0 -20 14 0 12 7 19 20 19 11 0
20 -6 20 -14z m1960 -36 c0 -11 -7 -20 -15 -20 -15 0 -21 21 -8 33 12 13 23 7
23 -13z m-1707 -54 c75 -31 120 -123 102 -207 -22 -101 -155 -219 -246 -219
-110 0 -156 125 -74 207 47 47 115 45 115 -3 0 -21 -3 -24 -25 -18 -39 10 -65
-19 -65 -72 0 -39 3 -44 27 -50 38 -10 90 21 132 80 28 39 36 60 39 107 5 69
-11 101 -63 126 -33 16 -39 15 -88 0 -134 -42 -237 -229 -224 -404 13 -169
113 -274 261 -272 64 0 141 28 141 51 0 9 -24 42 -54 73 -46 48 -58 56 -85 53
-28 -3 -31 -6 -31 -35 0 -36 -6 -41 -25 -18 -17 20 -5 61 24 80 32 21 60 9
134 -60 36 -33 69 -55 79 -54 10 2 31 -9 47 -24 35 -33 80 -47 173 -54 166
-13 369 66 472 183 45 51 49 62 26 70 -21 9 -19 41 4 54 27 14 28 13 46 -14
49 -74 -90 -225 -275 -298 -88 -35 -157 -48 -249 -48 -82 0 -120 9 -188 43
l-41 21 -39 -26 c-56 -39 -86 -48 -163 -48 -92 0 -161 27 -232 90 -95 84 -129
190 -109 331 15 109 92 243 172 300 86 61 210 86 282 55z m517 -30 c0 -7 -7
-19 -15 -26 -12 -10 -15 -47 -15 -219 0 -113 4 -212 8 -219 5 -7 16 -10 25 -6
29 11 21 -35 -8 -48 -22 -10 -29 -8 -49 11 l-24 22 -45 -32 c-32 -22 -61 -33
-97 -37 -49 -4 -52 -3 -90 36 -59 63 -66 151 -20 254 33 74 141 168 195 168
19 0 20 29 0 36 -22 9 -104 -14 -136 -37 -34 -24 -39 -24 -39 -1 0 40 66 75
170 91 41 7 76 14 79 16 11 12 61 4 61 -9z m-1100 -236 c21 -11 34 -53 25 -81
-11 -32 -34 -21 -45 21 -11 42 -34 53 -45 21 -3 -10 -5 -23 -4 -27 1 -5 1 -22
0 -38 -1 -28 -1 -29 -21 -11 -60 54 17 154 90 115z m2270 -60 c0 -5 -9 -10
-20 -10 -10 0 -24 -8 -29 -17 -9 -16 -10 -16 -11 3 0 11 3 24 7 27 10 11 53 8
53 -3z m-2240 -145 c0 -8 -6 -15 -14 -15 -17 0 -28 14 -19 24 12 12 33 6 33
-9z m2200 -11 c0 -8 -7 -14 -15 -14 -15 0 -21 21 -9 33 10 9 24 -2 24 -19z
m-132 -6 c45 -49 36 -115 -19 -143 -38 -20 -72 -13 -105 20 -32 32 -31 75 2
114 33 39 89 43 122 9z m-224 -111 c-3 -9 -12 -17 -20 -17 -17 0 -19 37 -1 43
18 7 29 -7 21 -26z m-356 -51 c-16 -8 -34 -18 -40 -21 -7 -4 -2 3 12 14 14 11
32 21 40 21 8 0 3 -7 -12 -14z m-100 -42 c-5 -20 -7 -53 -4 -73 6 -34 5 -35
-9 -17 -18 24 -19 65 -3 101 17 37 28 30 16 -11z m233 -14 c10 -6 19 -15 19
-20 0 -16 -39 -31 -64 -24 -34 8 -41 33 -13 44 30 12 35 12 58 0z m-318 -54
c-19 -26 -151 -109 -190 -121 -46 -13 -21 14 40 45 34 18 82 47 107 66 53 40
68 43 43 10z m425 -42 c50 -35 1 -66 -63 -40 -39 17 -44 30 -17 45 25 15 54
13 80 -5z m-1173 -64 c0 -16 -6 -26 -19 -28 -24 -5 -37 17 -25 41 14 26 44 17
44 -13z m138 -28 c26 -14 57 -17 159 -17 69 0 124 -3 122 -6 -9 -15 -111 -31
-168 -27 -107 9 -186 59 -159 100 6 9 9 6 11 -10 2 -13 17 -30 35 -40z m802
22 c79 -22 97 -39 30 -29 -27 4 -58 11 -69 17 -20 11 -46 -4 -27 -16 6 -4 11
-12 11 -18 0 -14 -28 9 -41 34 -12 23 -3 40 19 34 10 -3 44 -12 77 -22z m-185
2 c0 -8 -63 -36 -68 -31 -10 10 22 35 44 35 13 0 24 -2 24 -4z m-340 -110 c0
-2 -7 -7 -16 -10 -8 -3 -12 -2 -9 4 6 10 25 14 25 6z"/>
<path d="M2643 3693 c9 -2 25 -2 35 0 9 3 1 5 -18 5 -19 0 -27 -2 -17 -5z"/>
<path d="M3469 2737 c-34 -29 -89 -111 -89 -132 0 -18 2 -18 93 6 l37 10 0 69
c0 39 -3 70 -7 70 -5 -1 -20 -11 -34 -23z"/>
<path d="M1705 2658 c-37 -44 -121 -185 -149 -251 -15 -36 -14 -37 7 -36 12 0
63 12 112 27 l90 27 0 134 c0 91 -4 136 -11 138 -7 2 -28 -15 -49 -39z"/>
<path d="M3205 2108 c-28 -22 -75 -109 -75 -140 0 -28 27 -21 71 19 46 42 69
81 69 118 0 32 -27 33 -65 3z"/>
<path d="M2305 1828 c-45 -26 -95 -109 -95 -158 0 -35 1 -35 66 -14 73 25 75
28 72 107 -3 74 -10 84 -43 65z"/>
<path d="M2265 1603 c-27 -8 -52 -17 -54 -19 -2 -2 1 -15 7 -29 23 -51 107
-23 127 43 8 26 -5 27 -80 5z"/>
<path d="M3390 1530 c-14 -3 -32 -18 -40 -33 -13 -24 -13 -30 0 -54 36 -64
149 -15 124 54 -10 29 -44 43 -84 33z"/>
<path d="M2120 4241 c0 -9 62 -22 70 -14 8 7 -24 23 -47 23 -13 0 -23 -4 -23
-9z"/>
<path d="M2771 4239 c-13 -5 -21 -12 -18 -15 8 -8 77 7 77 17 0 11 -28 11 -59
-2z"/>
<path d="M2970 4206 c8 -8 56 -30 105 -49 99 -38 265 -122 314 -158 17 -12 33
-20 36 -17 10 9 -94 72 -218 132 -140 67 -259 114 -237 92z"/>
<path d="M1935 4188 c-135 -55 -245 -109 -245 -119 0 -4 30 7 68 26 93 47 182
85 196 85 7 0 21 7 32 15 26 20 9 17 -51 -7z"/>
<path d="M2028 4078 c-21 -6 -38 -14 -38 -19 0 -12 5 -11 51 3 22 6 39 15 39
20 0 9 -3 9 -52 -4z"/>
<path d="M2895 4075 c17 -8 39 -14 50 -14 13 0 8 5 -15 14 -46 18 -74 17 -35
0z"/>
<path d="M1571 4003 c-58 -36 -114 -74 -125 -84 -11 -11 -23 -19 -28 -19 -4 0
-8 -5 -8 -10 0 -6 30 12 68 38 37 27 95 66 130 87 53 32 83 56 70 55 -2 0 -50
-30 -107 -67z"/>
<path d="M1860 4010 c-8 -5 -10 -10 -5 -10 6 0 17 5 25 10 8 5 11 10 5 10 -5
0 -17 -5 -25 -10z"/>
<path d="M3085 4010 c3 -5 10 -10 15 -10 6 0 37 -13 70 -29 33 -16 58 -26 55
-21 -6 9 -127 70 -139 70 -4 0 -4 -4 -1 -10z"/>
<path d="M1780 3971 c-61 -31 -140 -79 -140 -85 0 -5 181 93 195 105 14 14 4
10 -55 -20z"/>
<path d="M3505 3923 c22 -21 54 -47 70 -57 l30 -18 -25 23 c-14 13 -46 39 -70
58 l-45 33 40 -39z"/>
<path d="M3241 3937 c19 -15 109 -66 109 -62 0 8 -92 65 -104 65 -5 0 -7 -1
-5 -3z"/>
<path d="M1379 3867 c-58 -45 -72 -58 -68 -62 3 -2 25 13 49 35 42 36 55 55
19 27z"/>
<path d="M3385 3850 c10 -11 20 -20 23 -20 3 0 -3 9 -13 20 -10 11 -20 20 -23
20 -3 0 3 -9 13 -20z"/>
<path d="M1550 3830 c-9 -6 -10 -10 -3 -10 6 0 15 5 18 10 8 12 4 12 -15 0z"/>
<path d="M3641 3813 c7 -12 15 -20 18 -17 3 2 -3 12 -13 22 -17 16 -18 16 -5
-5z"/>
<path d="M1426 3745 c-11 -8 -18 -17 -15 -19 2 -3 15 4 29 14 14 11 21 20 15
19 -5 0 -19 -6 -29 -14z"/>
<path d="M3511 3757 c2 -1 13 -9 24 -17 19 -14 19 -14 6 3 -7 9 -18 17 -24 17
-6 0 -8 -1 -6 -3z"/>
<path d="M3581 3703 c6 -10 23 -27 37 -37 21 -15 20 -12 -7 17 -38 41 -47 46
-30 20z"/>
<path d="M1370 3695 c-11 -13 -10 -14 4 -9 9 3 16 10 16 15 0 13 -6 11 -20 -6z"/>
<path d="M3780 3683 c0 -13 29 -38 35 -31 3 3 -4 13 -15 23 -11 10 -20 13 -20
8z"/>
<path d="M1160 3665 c-7 -9 -11 -18 -8 -20 3 -3 11 1 18 10 7 9 11 18 8 20 -3
3 -11 -1 -18 -10z"/>
<path d="M1294 3618 l-19 -23 23 19 c21 18 27 26 19 26 -2 0 -12 -10 -23 -22z"/>
<path d="M3650 3636 c0 -2 8 -10 18 -17 15 -13 16 -12 3 4 -13 16 -21 21 -21
13z"/>
<path d="M3690 3603 c1 -11 70 -88 70 -78 0 4 -16 25 -35 46 -19 22 -35 36
-35 32z"/>
<path d="M1225 3550 c-10 -11 -14 -20 -9 -20 5 0 15 9 22 20 7 11 11 20 9 20
-2 0 -12 -9 -22 -20z"/>
<path d="M1045 3540 c-3 -5 -1 -10 4 -10 6 0 11 5 11 10 0 6 -2 10 -4 10 -3 0
-8 -4 -11 -10z"/>
<path d="M3910 3540 c0 -5 5 -10 11 -10 5 0 7 5 4 10 -3 6 -8 10 -11 10 -2 0
-4 -4 -4 -10z"/>
<path d="M1179 3498 c-12 -23 -12 -23 10 -4 23 21 26 26 11 26 -5 0 -15 -10
-21 -22z"/>
<path d="M3785 3490 c10 -11 20 -20 23 -20 3 0 -3 9 -13 20 -10 11 -20 20 -23
20 -3 0 3 -9 13 -20z"/>
<path d="M1145 3449 c-4 -6 -5 -12 -2 -15 2 -3 7 2 10 11 7 17 1 20 -8 4z"/>
<path d="M3810 3453 c0 -5 12 -20 26 -34 24 -21 26 -22 16 -3 -13 25 -42 50
-42 37z"/>
<path d="M4000 3426 c0 -9 60 -102 60 -93 0 13 -39 85 -50 92 -5 3 -10 4 -10
1z"/>
<path d="M927 3375 c-14 -25 -22 -45 -19 -45 4 0 16 17 27 38 27 52 27 52 21
52 -2 0 -16 -20 -29 -45z"/>
<path d="M1091 3376 l-24 -31 28 27 c16 15 27 29 24 31 -2 3 -15 -10 -28 -27z"/>
<path d="M3871 3373 c7 -12 15 -20 18 -17 3 2 -3 12 -13 22 -17 16 -18 16 -5
-5z"/>
<path d="M3907 3322 c3 -12 9 -25 14 -28 14 -8 11 10 -6 32 -13 18 -14 18 -8
-4z"/>
<path d="M1035 3300 c-3 -5 -1 -10 4 -10 6 0 11 5 11 10 0 6 -2 10 -4 10 -3 0
-8 -4 -11 -10z"/>
<path d="M4156 3271 c-4 -5 -2 -12 3 -15 5 -4 12 -2 15 3 4 5 2 12 -3 15 -5 4
-12 2 -15 -3z"/>
<path d="M785 3260 c3 -5 10 -10 16 -10 5 0 9 5 9 10 0 6 -7 10 -16 10 -8 0
-12 -4 -9 -10z"/>
<path d="M915 3160 c-4 -7 -3 -16 3 -22 14 -14 45 -2 40 15 -6 16 -34 21 -43
7z"/>
<path d="M4017 3163 c-14 -13 -6 -33 13 -33 13 0 20 7 20 20 0 19 -20 27 -33
13z"/>
<path d="M750 3135 c0 -32 23 -105 32 -105 6 0 7 7 4 16 -3 9 -9 33 -12 55 -7
40 -24 64 -24 34z"/>
<path d="M4199 3138 c0 -7 -2 -20 -4 -28 -13 -56 -17 -84 -11 -79 13 13 34
109 25 115 -5 3 -9 -1 -10 -8z"/>
<path d="M910 3020 c0 -5 5 -10 10 -10 6 0 10 5 10 10 0 6 -4 10 -10 10 -5 0
-10 -4 -10 -10z"/>
<path d="M4030 3020 c0 -5 5 -10 10 -10 6 0 10 5 10 10 0 6 -4 10 -10 10 -5 0
-10 -4 -10 -10z"/>
<path d="M4144 2955 c11 -42 26 -78 32 -73 8 9 -17 98 -28 98 -6 0 -7 -11 -4
-25z"/>
<path d="M807 2963 c-2 -5 -7 -21 -11 -38 -6 -28 -5 -29 9 -11 8 11 15 28 15
38 0 19 -6 23 -13 11z"/>
<path d="M600 2920 c0 -5 8 -10 18 -10 10 0 28 -7 40 -16 33 -23 38 -10 6 15
-28 22 -64 28 -64 11z"/>
<path d="M4285 2888 c-26 -23 -53 -54 -61 -69 -25 -49 -15 -44 25 12 36 50 62
71 100 81 12 4 12 6 -2 11 -11 4 -31 -8 -62 -35z"/>
<path d="M4055 2880 c8 -49 23 -85 32 -76 7 7 -17 98 -30 111 -6 6 -6 -6 -2
-35z"/>
<path d="M892 2871 c-14 -46 -16 -69 -3 -55 12 13 30 94 22 94 -5 0 -13 -17
-19 -39z"/>
<path d="M739 2789 c16 -30 34 -77 41 -105 7 -29 21 -62 31 -75 17 -22 17 -18
-2 44 -28 95 -53 149 -77 171 -18 16 -17 11 7 -35z"/>
<path d="M602 2753 c2 -10 10 -18 18 -18 8 0 16 8 18 18 2 12 -3 17 -18 17
-15 0 -20 -5 -18 -17z"/>
<path d="M4325 2760 c-8 -12 20 -24 35 -15 6 3 8 11 5 16 -8 12 -32 12 -40 -1z"/>
<path d="M4179 2723 c-5 -14 -8 -30 -6 -36 1 -5 8 7 14 27 13 42 7 49 -8 9z"/>
<path d="M620 2600 c-9 -18 -18 -21 -41 -16 -16 3 -29 1 -29 -4 0 -6 6 -10 14
-10 8 0 28 -17 45 -39 17 -21 44 -44 61 -51 49 -20 45 -5 -5 25 -38 22 -46 31
-43 52 4 35 32 52 58 36 16 -11 18 -10 14 2 -4 8 -12 15 -19 15 -7 0 -20 3
-28 6 -10 3 -20 -3 -27 -16z"/>
<path d="M4295 2610 c-12 -4 -27 -16 -35 -26 -14 -17 -14 -17 12 0 21 14 31
15 48 6 19 -10 21 -17 15 -48 l-6 -37 23 33 c21 31 26 33 68 29 44 -5 44 -5
18 9 -19 10 -34 11 -52 4 -22 -8 -28 -6 -42 15 -18 27 -19 28 -49 15z"/>
<path d="M513 2565 c-35 -24 -29 -79 13 -113 l34 -29 -25 -27 c-27 -30 -31
-55 -14 -89 16 -30 28 -37 67 -37 25 0 35 -5 39 -20 3 -11 11 -20 18 -20 16 0
64 39 49 40 -5 0 -15 -5 -21 -11 -20 -20 -41 -3 -35 28 5 27 4 28 -15 11 -26
-24 -54 -23 -81 2 -31 29 -28 63 9 94 17 14 34 26 38 26 16 0 20 -14 10 -27
-15 -17 1 -16 25 2 11 8 29 15 40 15 39 0 0 21 -48 25 -90 9 -136 75 -89 127
20 22 15 23 -14 3z"/>
<path d="M730 2540 c0 -9 59 -35 64 -29 2 2 -12 11 -30 20 -19 9 -34 13 -34 9z"/>
<path d="M4210 2535 c-11 -13 -10 -14 4 -9 9 3 16 10 16 15 0 13 -6 11 -20 -6z"/>
<path d="M4461 2513 c0 -29 2 -33 8 -18 7 18 4 55 -5 55 -2 0 -4 -17 -3 -37z"/>
<path d="M4122 2510 c-18 -4 -36 -11 -40 -15 -8 -8 63 4 93 16 l20 8 -20 -1
c-11 0 -35 -4 -53 -8z"/>
<path d="M811 2506 c2 -2 22 -6 44 -9 28 -5 34 -4 20 3 -19 8 -73 14 -64 6z"/>
<path d="M4189 2465 c-25 -7 -57 -19 -70 -26 -23 -12 -22 -13 31 -24 30 -6 71
-19 90 -30 30 -15 33 -16 21 -2 -11 14 -11 18 3 23 9 3 31 4 49 1 17 -2 40 0
50 5 13 7 28 3 55 -12 36 -22 37 -22 18 -1 -10 11 -16 26 -13 34 4 10 -6 11
-52 5 -120 -18 -173 -20 -183 -10 -7 7 2 17 28 31 44 23 39 24 -27 6z"/>
<path d="M760 2455 c33 -15 34 -17 16 -30 -11 -9 -30 -12 -49 -8 -23 5 -29 3
-25 -8 3 -8 -9 -30 -26 -49 -21 -23 -23 -28 -6 -13 42 36 121 73 156 73 69 0
26 29 -66 45 l-35 6 35 -16z"/>
<path d="M795 2355 c-17 -8 -21 -12 -9 -10 12 3 42 10 65 14 43 9 43 9 9 9
-19 1 -48 -5 -65 -13z"/>
<path d="M4088 2363 c12 -2 30 -2 40 0 9 3 -1 5 -23 4 -22 0 -30 -2 -17 -4z"/>
<path d="M4288 2363 c6 -2 12 -11 12 -18 0 -7 4 -15 10 -17 5 -1 12 -18 16
-35 8 -40 -16 -55 -46 -28 -11 10 -20 13 -20 7 0 -15 40 -42 63 -42 10 0 21 9
24 20 4 15 14 20 38 20 19 0 39 8 50 20 21 23 11 27 -11 5 -29 -28 -61 -18
-94 30 -17 25 -36 45 -43 44 -9 0 -9 -2 1 -6z"/>
<path d="M4444 2345 c0 -14 4 -25 9 -25 10 0 9 38 -2 44 -5 3 -8 -5 -7 -19z"/>
<path d="M740 2329 c0 -5 5 -7 10 -4 6 3 10 8 10 11 0 2 -4 4 -10 4 -5 0 -10
-5 -10 -11z"/>
<path d="M4121 2265 c3 -5 14 -30 25 -55 12 -25 24 -62 28 -84 8 -44 36 -106
48 -106 7 0 1 27 -12 45 -4 6 -17 47 -30 93 -13 45 -33 90 -43 100 -11 9 -18
13 -16 7z"/>
<path d="M820 2245 c-7 -9 -8 -15 -2 -15 5 0 12 7 16 15 3 8 4 15 2 15 -2 0
-9 -7 -16 -15z"/>
<path d="M770 2109 c-6 -23 -16 -52 -20 -65 -15 -39 -2 -27 16 14 16 37 28 92
19 92 -2 0 -9 -19 -15 -41z"/>
<path d="M604 2065 c-9 -22 5 -38 22 -24 18 15 18 25 -1 33 -9 3 -18 -1 -21
-9z"/>
<path d="M4330 2055 c0 -8 9 -15 20 -15 11 0 20 7 20 15 0 8 -9 15 -20 15 -11
0 -20 -7 -20 -15z"/>
<path d="M875 2009 c11 -34 36 -82 41 -77 8 9 -22 92 -35 96 -10 3 -11 -2 -6
-19z"/>
<path d="M4070 2006 c-15 -39 -23 -76 -17 -76 7 0 38 92 32 98 -2 3 -9 -7 -15
-22z"/>
<path d="M705 1969 c-4 -6 -5 -12 -2 -15 2 -3 7 2 10 11 7 17 1 20 -8 4z"/>
<path d="M784 1935 c3 -13 11 -37 18 -52 16 -40 23 -4 8 42 -13 40 -36 49 -26
10z"/>
<path d="M4160 1926 c-12 -33 -12 -36 -1 -36 9 0 22 52 15 59 -2 2 -8 -8 -14
-23z"/>
<path d="M583 1873 c-7 -3 -13 -9 -13 -14 0 -13 38 -11 46 3 4 6 3 8 -4 4 -5
-3 -12 -2 -14 2 -1 5 -9 7 -15 5z"/>
<path d="M4375 1860 c-3 -5 -1 -10 4 -10 6 0 11 5 11 10 0 6 -2 10 -4 10 -3 0
-8 -4 -11 -10z"/>
<path d="M913 1784 c-8 -21 13 -42 28 -27 13 13 5 43 -11 43 -6 0 -13 -7 -17
-16z"/>
<path d="M4019 1789 c-12 -7 -11 -11 3 -25 17 -17 38 -12 38 11 0 17 -23 25
-41 14z"/>
<path d="M761 1724 c-7 -31 -10 -58 -7 -61 6 -6 8 -1 23 65 6 23 7 44 3 47 -4
2 -13 -21 -19 -51z"/>
<path d="M4184 1733 c10 -57 16 -73 27 -73 6 0 8 8 5 18 -3 9 -8 34 -12 55 -3
20 -11 37 -16 37 -6 0 -8 -15 -4 -37z"/>
<path d="M914 1549 c18 -40 38 -75 44 -77 7 -2 -4 29 -23 70 -46 95 -64 101
-21 7z"/>
<path d="M1033 1606 c11 -27 58 -98 63 -93 3 2 -10 28 -27 56 -31 49 -47 66
-36 37z"/>
<path d="M4067 1613 c-4 -3 -7 -13 -7 -22 1 -13 3 -13 11 2 11 19 8 33 -4 20z"/>
<path d="M3887 1548 c-27 -46 -30 -55 -12 -33 27 32 57 86 52 92 -2 2 -20 -25
-40 -59z"/>
<path d="M4041 1543 c-10 -26 -10 -27 4 -9 8 11 15 23 15 28 0 15 -7 8 -19
-19z"/>
<path d="M4017 1503 c-4 -3 -7 -13 -7 -22 1 -13 3 -13 11 2 11 19 8 33 -4 20z"/>
<path d="M1134 1455 c14 -29 72 -95 82 -95 5 0 -14 24 -76 100 l-21 25 15 -30z"/>
<path d="M3757 1370 c-15 -16 -23 -30 -19 -30 5 0 18 14 30 30 13 17 21 30 19
30 -2 0 -16 -13 -30 -30z"/>
<path d="M1072 1318 c41 -53 206 -218 218 -218 4 0 -39 48 -97 106 -57 59
-111 117 -120 130 -8 13 -20 24 -25 24 -5 0 5 -19 24 -42z"/>
<path d="M3778 1209 c-76 -77 -130 -135 -120 -130 32 17 285 280 260 270 -2
-1 -65 -64 -140 -140z"/>
<path d="M3635 1244 c-49 -47 -81 -80 -70 -74 21 13 173 160 165 160 -3 0 -45
-39 -95 -86z"/>
<path d="M1292 1275 c15 -16 29 -27 31 -24 3 2 -10 15 -27 28 l-31 24 27 -28z"/>
<path d="M1356 1217 c3 -10 9 -15 12 -12 3 3 0 11 -7 18 -10 9 -11 8 -5 -6z"/>
<path d="M1440 1140 c14 -11 30 -24 35 -28 31 -25 66 -44 72 -38 3 3 1 6 -5 6
-7 0 -20 8 -30 18 -26 25 -80 62 -89 62 -4 -1 3 -10 17 -20z"/>
<path d="M1358 1045 c17 -14 34 -25 38 -25 11 0 -48 49 -59 50 -5 0 5 -11 21
-25z"/>
<path d="M3599 1044 l-24 -27 28 18 c15 9 27 21 27 26 0 14 -5 11 -31 -17z"/>
<path d="M1920 1025 c0 -8 73 -36 78 -30 3 3 3 5 0 5 -3 0 -22 7 -42 15 -20 8
-36 13 -36 10z"/>
<path d="M3530 989 c-19 -17 -26 -26 -15 -21 18 9 64 52 54 52 -2 0 -20 -14
-39 -31z"/>
<path d="M1413 1004 c3 -5 27 -25 53 -44 26 -18 44 -28 40 -22 -4 6 -28 26
-53 43 -25 18 -44 28 -40 23z"/>
<path d="M2018 983 c7 -3 16 -2 19 1 4 3 -2 6 -13 5 -11 0 -14 -3 -6 -6z"/>
<path d="M2095 960 c11 -5 29 -8 40 -8 16 0 15 2 -5 8 -34 11 -60 11 -35 0z"/>
<path d="M2815 954 l-40 -13 40 5 c22 3 44 10 50 15 12 12 -1 11 -50 -7z"/>
<path d="M2168 943 c7 -3 16 -2 19 1 4 3 -2 6 -13 5 -11 0 -14 -3 -6 -6z"/>
<path d="M2240 929 c25 -4 59 -7 75 -7 22 0 18 3 -15 9 -25 4 -58 7 -75 7 -22
0 -18 -3 15 -9z"/>
<path d="M2680 930 l-45 -7 40 0 c22 0 54 3 70 7 26 7 27 8 5 7 -14 0 -45 -3
-70 -7z"/>
<path d="M2360 918 c0 -5 55 -7 123 -6 124 2 109 5 -41 10 -45 2 -82 0 -82 -4z"/>
</g>
</svg>
